<mxfile host="Electron" modified="2024-03-23T15:28:02.635Z" agent="Mozilla/5.0 (X11; Linux x86_64) AppleWebKit/537.36 (KHTML, like Gecko) draw.io/22.1.18 Chrome/120.0.6099.216 Electron/28.1.4 Safari/537.36" etag="vVTi3lD4YgbI3x5CH0iv" version="22.1.18" type="device">
  <diagram name="Seite-1" id="23MRz16cfzoXieUq-R6g">
    <mxGraphModel dx="1674" dy="958" grid="1" gridSize="10" guides="1" tooltips="1" connect="1" arrows="1" fold="1" page="1" pageScale="1" pageWidth="827" pageHeight="1169" math="0" shadow="0">
      <root>
        <mxCell id="0" />
        <mxCell id="1" parent="0" />
        <mxCell id="91nenJE4Ufh3_1_eLQ6r-1" value="" style="rounded=0;whiteSpace=wrap;html=1;" vertex="1" parent="1">
          <mxGeometry x="110" y="40" width="620" height="380" as="geometry" />
        </mxCell>
        <mxCell id="P1zn6FIA8qhAu7OwvEEA-7" value="«System»&lt;br&gt;&lt;b&gt;Kantinerado&lt;/b&gt;" style="html=1;dropTarget=0;whiteSpace=wrap;" parent="1" vertex="1">
          <mxGeometry x="330" y="130" width="180" height="90" as="geometry" />
        </mxCell>
        <mxCell id="P1zn6FIA8qhAu7OwvEEA-8" value="" style="shape=module;jettyWidth=8;jettyHeight=4;" parent="P1zn6FIA8qhAu7OwvEEA-7" vertex="1">
          <mxGeometry x="1" width="20" height="20" relative="1" as="geometry">
            <mxPoint x="-27" y="7" as="offset" />
          </mxGeometry>
        </mxCell>
        <mxCell id="P1zn6FIA8qhAu7OwvEEA-15" style="edgeStyle=orthogonalEdgeStyle;rounded=0;orthogonalLoop=1;jettySize=auto;html=1;entryX=0;entryY=0.5;entryDx=0;entryDy=0;" parent="1" source="P1zn6FIA8qhAu7OwvEEA-14" target="P1zn6FIA8qhAu7OwvEEA-7" edge="1">
          <mxGeometry relative="1" as="geometry" />
        </mxCell>
        <mxCell id="P1zn6FIA8qhAu7OwvEEA-16" value="Http" style="edgeLabel;html=1;align=center;verticalAlign=middle;resizable=0;points=[];" parent="P1zn6FIA8qhAu7OwvEEA-15" vertex="1" connectable="0">
          <mxGeometry x="0.3455" y="2" relative="1" as="geometry">
            <mxPoint x="-17" y="-23" as="offset" />
          </mxGeometry>
        </mxCell>
        <mxCell id="P1zn6FIA8qhAu7OwvEEA-14" value="Browser" style="shape=cube;whiteSpace=wrap;html=1;boundedLbl=1;backgroundOutline=1;darkOpacity=0.05;darkOpacity2=0.1;" parent="1" vertex="1">
          <mxGeometry x="150" y="122.5" width="80" height="105" as="geometry" />
        </mxCell>
        <mxCell id="P1zn6FIA8qhAu7OwvEEA-18" value="Externe Zahlungsanbieter" style="shape=cube;whiteSpace=wrap;html=1;boundedLbl=1;backgroundOutline=1;darkOpacity=0.05;darkOpacity2=0.1;" parent="1" vertex="1">
          <mxGeometry x="470" y="300" width="120" height="80" as="geometry" />
        </mxCell>
        <mxCell id="P1zn6FIA8qhAu7OwvEEA-19" value="" style="endArrow=none;dashed=1;html=1;rounded=0;entryX=0.697;entryY=0.98;entryDx=0;entryDy=0;entryPerimeter=0;" parent="1" target="P1zn6FIA8qhAu7OwvEEA-7" edge="1">
          <mxGeometry width="50" height="50" relative="1" as="geometry">
            <mxPoint x="510" y="290" as="sourcePoint" />
            <mxPoint x="460" y="290" as="targetPoint" />
          </mxGeometry>
        </mxCell>
        <mxCell id="P1zn6FIA8qhAu7OwvEEA-20" value="(optional)" style="edgeLabel;html=1;align=center;verticalAlign=middle;resizable=0;points=[];" parent="P1zn6FIA8qhAu7OwvEEA-19" vertex="1" connectable="0">
          <mxGeometry x="0.5076" y="-3" relative="1" as="geometry">
            <mxPoint x="39" y="16" as="offset" />
          </mxGeometry>
        </mxCell>
        <mxCell id="P1zn6FIA8qhAu7OwvEEA-21" style="edgeStyle=orthogonalEdgeStyle;rounded=0;orthogonalLoop=1;jettySize=auto;html=1;entryX=0.973;entryY=0.497;entryDx=0;entryDy=0;entryPerimeter=0;" parent="1" edge="1">
          <mxGeometry relative="1" as="geometry">
            <mxPoint x="330" y="160.31" as="sourcePoint" />
            <mxPoint x="227.83999999999992" y="159.99500000000006" as="targetPoint" />
          </mxGeometry>
        </mxCell>
        <mxCell id="P1zn6FIA8qhAu7OwvEEA-24" value="&lt;font style=&quot;font-size: 8px;&quot;&gt;PDF&lt;/font&gt;" style="whiteSpace=wrap;html=1;shape=mxgraph.basic.document" parent="1" vertex="1">
          <mxGeometry x="590" y="90" width="50" height="60" as="geometry" />
        </mxCell>
        <mxCell id="P1zn6FIA8qhAu7OwvEEA-25" value="&lt;font style=&quot;font-size: 8px;&quot;&gt;Direktdruck&lt;/font&gt;" style="whiteSpace=wrap;html=1;shape=mxgraph.basic.document" parent="1" vertex="1">
          <mxGeometry x="590" y="170" width="50" height="60" as="geometry" />
        </mxCell>
        <mxCell id="P1zn6FIA8qhAu7OwvEEA-27" value="" style="endArrow=classic;html=1;rounded=0;" parent="1" source="P1zn6FIA8qhAu7OwvEEA-7" target="P1zn6FIA8qhAu7OwvEEA-24" edge="1">
          <mxGeometry width="50" height="50" relative="1" as="geometry">
            <mxPoint x="450" y="220" as="sourcePoint" />
            <mxPoint x="500" y="170" as="targetPoint" />
          </mxGeometry>
        </mxCell>
        <mxCell id="P1zn6FIA8qhAu7OwvEEA-29" value="&lt;font style=&quot;font-size: 6px;&quot;&gt;Download&lt;/font&gt;" style="edgeLabel;html=1;align=center;verticalAlign=middle;resizable=0;points=[];" parent="P1zn6FIA8qhAu7OwvEEA-27" vertex="1" connectable="0">
          <mxGeometry x="-0.1916" y="-1" relative="1" as="geometry">
            <mxPoint x="17" y="-19" as="offset" />
          </mxGeometry>
        </mxCell>
        <mxCell id="P1zn6FIA8qhAu7OwvEEA-28" value="" style="endArrow=classic;html=1;rounded=0;" parent="1" source="P1zn6FIA8qhAu7OwvEEA-7" target="P1zn6FIA8qhAu7OwvEEA-25" edge="1">
          <mxGeometry width="50" height="50" relative="1" as="geometry">
            <mxPoint x="450" y="220" as="sourcePoint" />
            <mxPoint x="500" y="170" as="targetPoint" />
          </mxGeometry>
        </mxCell>
      </root>
    </mxGraphModel>
  </diagram>
</mxfile>
